<mxfile host="app.diagrams.net" modified="2024-03-14T20:26:40.121Z" agent="Mozilla/5.0 (Macintosh; Intel Mac OS X 10_15_7) AppleWebKit/537.36 (KHTML, like Gecko) Chrome/122.0.0.0 Safari/537.36" etag="3uytaBAEFaADamVaTxEq" version="24.0.6" type="github">
  <diagram name="PÃ¡gina-1" id="EC5-yDx1gmlKd79TGFPl">
    <mxGraphModel dx="1985" dy="1863" grid="1" gridSize="10" guides="1" tooltips="1" connect="1" arrows="1" fold="1" page="1" pageScale="1" pageWidth="827" pageHeight="1169" math="0" shadow="0">
      <root>
        <mxCell id="0" />
        <mxCell id="1" parent="0" />
        <mxCell id="1MhiarmOQ1BAu21N2S9K-9" value="S" style="edgeStyle=orthogonalEdgeStyle;rounded=0;orthogonalLoop=1;jettySize=auto;html=1;entryX=1;entryY=0.5;entryDx=0;entryDy=0;" parent="1" source="1MhiarmOQ1BAu21N2S9K-2" target="1MhiarmOQ1BAu21N2S9K-8" edge="1">
          <mxGeometry relative="1" as="geometry" />
        </mxCell>
        <mxCell id="1MhiarmOQ1BAu21N2S9K-11" value="Alerts" style="edgeLabel;html=1;align=center;verticalAlign=middle;resizable=0;points=[];" parent="1MhiarmOQ1BAu21N2S9K-9" vertex="1" connectable="0">
          <mxGeometry x="-0.0857" relative="1" as="geometry">
            <mxPoint as="offset" />
          </mxGeometry>
        </mxCell>
        <mxCell id="URw1oCdvZ4ZULjiAWeCE-17" style="edgeStyle=orthogonalEdgeStyle;rounded=0;orthogonalLoop=1;jettySize=auto;html=1;entryX=0.5;entryY=1;entryDx=0;entryDy=0;" parent="1" source="1MhiarmOQ1BAu21N2S9K-2" target="URw1oCdvZ4ZULjiAWeCE-16" edge="1">
          <mxGeometry relative="1" as="geometry" />
        </mxCell>
        <mxCell id="vqQ0VsHs9EydCFRSuEvc-1" value="HTTP(s)" style="edgeLabel;html=1;align=center;verticalAlign=middle;resizable=0;points=[];" parent="URw1oCdvZ4ZULjiAWeCE-17" vertex="1" connectable="0">
          <mxGeometry x="0.2692" y="1" relative="1" as="geometry">
            <mxPoint x="1" y="-61" as="offset" />
          </mxGeometry>
        </mxCell>
        <mxCell id="URw1oCdvZ4ZULjiAWeCE-18" style="edgeStyle=orthogonalEdgeStyle;rounded=0;orthogonalLoop=1;jettySize=auto;html=1;" parent="1" source="1MhiarmOQ1BAu21N2S9K-2" target="1MhiarmOQ1BAu21N2S9K-5" edge="1">
          <mxGeometry relative="1" as="geometry" />
        </mxCell>
        <mxCell id="I3jezIKi--hEiTG_am1P-2" style="edgeStyle=orthogonalEdgeStyle;rounded=0;orthogonalLoop=1;jettySize=auto;html=1;startArrow=classic;startFill=1;" parent="1" source="1MhiarmOQ1BAu21N2S9K-2" target="I3jezIKi--hEiTG_am1P-1" edge="1">
          <mxGeometry relative="1" as="geometry">
            <Array as="points">
              <mxPoint x="420" y="167" />
              <mxPoint x="340" y="167" />
            </Array>
          </mxGeometry>
        </mxCell>
        <mxCell id="vqQ0VsHs9EydCFRSuEvc-3" style="edgeStyle=orthogonalEdgeStyle;rounded=0;orthogonalLoop=1;jettySize=auto;html=1;entryX=0.5;entryY=1;entryDx=0;entryDy=0;startArrow=classic;startFill=1;" parent="1" source="1MhiarmOQ1BAu21N2S9K-2" target="vqQ0VsHs9EydCFRSuEvc-2" edge="1">
          <mxGeometry relative="1" as="geometry" />
        </mxCell>
        <mxCell id="vqQ0VsHs9EydCFRSuEvc-4" value="Selenium WebDriver - Chrome&amp;nbsp;&lt;br&gt;Screenshot feature" style="edgeLabel;html=1;align=center;verticalAlign=middle;resizable=0;points=[];" parent="vqQ0VsHs9EydCFRSuEvc-3" vertex="1" connectable="0">
          <mxGeometry x="0.6941" y="-3" relative="1" as="geometry">
            <mxPoint as="offset" />
          </mxGeometry>
        </mxCell>
        <mxCell id="nuFNRSTuU9vE3Ly6UdoT-1" style="edgeStyle=orthogonalEdgeStyle;rounded=0;orthogonalLoop=1;jettySize=auto;html=1;startArrow=classic;startFill=1;" edge="1" parent="1" source="1MhiarmOQ1BAu21N2S9K-2" target="bWFMUhMA222-z3urMpEF-1">
          <mxGeometry relative="1" as="geometry" />
        </mxCell>
        <mxCell id="1MhiarmOQ1BAu21N2S9K-2" value="Monitoring Service" style="rounded=1;whiteSpace=wrap;html=1;fillColor=#dae8fc;strokeColor=#6c8ebf;" parent="1" vertex="1">
          <mxGeometry x="400" y="230" width="120" height="60" as="geometry" />
        </mxCell>
        <mxCell id="1MhiarmOQ1BAu21N2S9K-3" value="UI" style="rounded=1;whiteSpace=wrap;html=1;fillColor=#d5e8d4;strokeColor=#82b366;" parent="1" vertex="1">
          <mxGeometry x="442.71" y="725.75" width="120" height="60" as="geometry" />
        </mxCell>
        <mxCell id="1MhiarmOQ1BAu21N2S9K-4" value="Notification DB" style="image;aspect=fixed;html=1;points=[];align=center;fontSize=12;image=img/lib/azure2/databases/SQL_Server.svg;" parent="1" vertex="1">
          <mxGeometry x="95" y="50" width="50" height="50" as="geometry" />
        </mxCell>
        <mxCell id="1MhiarmOQ1BAu21N2S9K-5" value="Monitoring DB" style="image;aspect=fixed;html=1;points=[];align=center;fontSize=12;image=img/lib/azure2/databases/SQL_Server.svg;" parent="1" vertex="1">
          <mxGeometry x="550" y="52" width="50" height="50" as="geometry" />
        </mxCell>
        <mxCell id="1MhiarmOQ1BAu21N2S9K-7" style="edgeStyle=orthogonalEdgeStyle;rounded=0;orthogonalLoop=1;jettySize=auto;html=1;entryX=0.5;entryY=1;entryDx=0;entryDy=0;strokeColor=none;startArrow=classic;startFill=1;" parent="1" source="1MhiarmOQ1BAu21N2S9K-6" target="1MhiarmOQ1BAu21N2S9K-3" edge="1">
          <mxGeometry relative="1" as="geometry" />
        </mxCell>
        <mxCell id="1MhiarmOQ1BAu21N2S9K-31" style="edgeStyle=orthogonalEdgeStyle;rounded=0;orthogonalLoop=1;jettySize=auto;html=1;entryX=0;entryY=0.5;entryDx=0;entryDy=0;startArrow=classic;startFill=1;" parent="1" source="1MhiarmOQ1BAu21N2S9K-6" target="1MhiarmOQ1BAu21N2S9K-3" edge="1">
          <mxGeometry relative="1" as="geometry" />
        </mxCell>
        <mxCell id="1MhiarmOQ1BAu21N2S9K-6" value="Internet / Users" style="image;aspect=fixed;perimeter=ellipsePerimeter;html=1;align=center;shadow=0;dashed=0;spacingTop=3;image=img/lib/active_directory/internet_cloud.svg;" parent="1" vertex="1">
          <mxGeometry x="245" y="740" width="50" height="31.5" as="geometry" />
        </mxCell>
        <mxCell id="1MhiarmOQ1BAu21N2S9K-10" style="edgeStyle=orthogonalEdgeStyle;rounded=0;orthogonalLoop=1;jettySize=auto;html=1;entryX=1;entryY=0.5;entryDx=0;entryDy=0;" parent="1" source="1MhiarmOQ1BAu21N2S9K-8" target="1MhiarmOQ1BAu21N2S9K-1" edge="1">
          <mxGeometry relative="1" as="geometry" />
        </mxCell>
        <mxCell id="1MhiarmOQ1BAu21N2S9K-12" value="Alerts" style="edgeLabel;html=1;align=center;verticalAlign=middle;resizable=0;points=[];" parent="1MhiarmOQ1BAu21N2S9K-10" vertex="1" connectable="0">
          <mxGeometry x="0.1429" y="-3" relative="1" as="geometry">
            <mxPoint as="offset" />
          </mxGeometry>
        </mxCell>
        <mxCell id="1MhiarmOQ1BAu21N2S9K-8" value="RabbitMQ&lt;br&gt;Masstransit" style="rounded=1;whiteSpace=wrap;html=1;fillColor=#ffe6cc;strokeColor=#d79b00;" parent="1" vertex="1">
          <mxGeometry x="250" y="230" width="80" height="60" as="geometry" />
        </mxCell>
        <mxCell id="1MhiarmOQ1BAu21N2S9K-13" style="edgeStyle=orthogonalEdgeStyle;rounded=0;orthogonalLoop=1;jettySize=auto;html=1;entryX=0.5;entryY=1.06;entryDx=0;entryDy=0;entryPerimeter=0;" parent="1" source="1MhiarmOQ1BAu21N2S9K-1" target="1MhiarmOQ1BAu21N2S9K-4" edge="1">
          <mxGeometry relative="1" as="geometry" />
        </mxCell>
        <mxCell id="1MhiarmOQ1BAu21N2S9K-14" value="Save notification Log&lt;br&gt;Get nofification Details" style="text;html=1;strokeColor=none;fillColor=none;align=left;verticalAlign=middle;whiteSpace=wrap;rounded=0;" parent="1" vertex="1">
          <mxGeometry x="130" y="140" width="180" height="50" as="geometry" />
        </mxCell>
        <mxCell id="1MhiarmOQ1BAu21N2S9K-16" value="Save Monitoring Data" style="text;html=1;strokeColor=none;fillColor=none;align=left;verticalAlign=middle;whiteSpace=wrap;rounded=0;" parent="1" vertex="1">
          <mxGeometry x="485" y="160" width="130" height="50" as="geometry" />
        </mxCell>
        <mxCell id="1MhiarmOQ1BAu21N2S9K-18" value="" style="group;container=0;" parent="1" vertex="1" connectable="0">
          <mxGeometry x="60" y="230" width="120" height="110" as="geometry" />
        </mxCell>
        <mxCell id="bWFMUhMA222-z3urMpEF-5" style="edgeStyle=orthogonalEdgeStyle;rounded=0;orthogonalLoop=1;jettySize=auto;html=1;entryX=0.5;entryY=1;entryDx=0;entryDy=0;startArrow=classic;startFill=1;" parent="1" source="bWFMUhMA222-z3urMpEF-7" target="bWFMUhMA222-z3urMpEF-1" edge="1">
          <mxGeometry relative="1" as="geometry" />
        </mxCell>
        <mxCell id="1MhiarmOQ1BAu21N2S9K-22" value="API Gateway or Kubernetes Ingress Load Balancer" style="outlineConnect=0;dashed=0;verticalLabelPosition=bottom;verticalAlign=top;align=center;html=1;shape=mxgraph.aws3.api_gateway;fillColor=#D9A741;gradientColor=none;" parent="1" vertex="1">
          <mxGeometry x="240.88" y="540" width="58.25" height="60" as="geometry" />
        </mxCell>
        <mxCell id="1MhiarmOQ1BAu21N2S9K-23" style="edgeStyle=orthogonalEdgeStyle;rounded=0;orthogonalLoop=1;jettySize=auto;html=1;entryX=0.5;entryY=1;entryDx=0;entryDy=0;entryPerimeter=0;startArrow=classic;startFill=1;" parent="1" source="1MhiarmOQ1BAu21N2S9K-6" target="1MhiarmOQ1BAu21N2S9K-22" edge="1">
          <mxGeometry relative="1" as="geometry" />
        </mxCell>
        <mxCell id="1MhiarmOQ1BAu21N2S9K-24" style="edgeStyle=orthogonalEdgeStyle;rounded=0;orthogonalLoop=1;jettySize=auto;html=1;entryX=0.5;entryY=1;entryDx=0;entryDy=0;entryPerimeter=0;startArrow=classic;startFill=1;" parent="1" source="1MhiarmOQ1BAu21N2S9K-22" target="1MhiarmOQ1BAu21N2S9K-17" edge="1">
          <mxGeometry relative="1" as="geometry" />
        </mxCell>
        <mxCell id="1MhiarmOQ1BAu21N2S9K-28" value="" style="aspect=fixed;sketch=0;html=1;dashed=0;whitespace=wrap;fillColor=#2875E2;strokeColor=#ffffff;points=[[0.005,0.63,0],[0.1,0.2,0],[0.9,0.2,0],[0.5,0,0],[0.995,0.63,0],[0.72,0.99,0],[0.5,1,0],[0.28,0.99,0]];shape=mxgraph.kubernetes.icon2;kubernetesLabel=1;prIcon=api" parent="1" vertex="1">
          <mxGeometry x="485" y="290" width="35.42" height="34" as="geometry" />
        </mxCell>
        <mxCell id="1MhiarmOQ1BAu21N2S9K-29" style="edgeStyle=orthogonalEdgeStyle;rounded=0;orthogonalLoop=1;jettySize=auto;html=1;entryX=0.5;entryY=1;entryDx=0;entryDy=0;entryPerimeter=0;labelBorderColor=none;jumpStyle=arc;startArrow=classic;startFill=1;" parent="1" source="1MhiarmOQ1BAu21N2S9K-22" target="1MhiarmOQ1BAu21N2S9K-28" edge="1">
          <mxGeometry relative="1" as="geometry">
            <Array as="points">
              <mxPoint x="270" y="490" />
              <mxPoint x="503" y="490" />
            </Array>
          </mxGeometry>
        </mxCell>
        <mxCell id="1MhiarmOQ1BAu21N2S9K-32" value="" style="strokeColor=#dddddd;shadow=1;strokeWidth=1;rounded=1;absoluteArcSize=1;arcSize=2;" parent="1" vertex="1">
          <mxGeometry x="220" y="390" width="237.29" height="44" as="geometry" />
        </mxCell>
        <mxCell id="1MhiarmOQ1BAu21N2S9K-33" value="Service Discovery + KV&amp;nbsp; / Consul" style="sketch=0;dashed=0;connectable=0;html=1;fillColor=#757575;strokeColor=none;shape=mxgraph.gcp2.service_discovery;part=1;labelPosition=right;verticalLabelPosition=middle;align=left;verticalAlign=middle;spacingLeft=5;fontSize=12;" parent="1MhiarmOQ1BAu21N2S9K-32" vertex="1">
          <mxGeometry y="0.5" width="32" height="32" relative="1" as="geometry">
            <mxPoint x="5" y="-16" as="offset" />
          </mxGeometry>
        </mxCell>
        <mxCell id="bWFMUhMA222-z3urMpEF-3" style="edgeStyle=orthogonalEdgeStyle;rounded=0;orthogonalLoop=1;jettySize=auto;html=1;" parent="1" source="bWFMUhMA222-z3urMpEF-1" target="bWFMUhMA222-z3urMpEF-2" edge="1">
          <mxGeometry relative="1" as="geometry" />
        </mxCell>
        <mxCell id="bWFMUhMA222-z3urMpEF-9" style="edgeStyle=orthogonalEdgeStyle;rounded=0;orthogonalLoop=1;jettySize=auto;html=1;entryX=0;entryY=0.5;entryDx=0;entryDy=0;endArrow=classic;endFill=1;startArrow=classic;startFill=1;" parent="1" source="bWFMUhMA222-z3urMpEF-1" target="bWFMUhMA222-z3urMpEF-8" edge="1">
          <mxGeometry relative="1" as="geometry" />
        </mxCell>
        <mxCell id="bWFMUhMA222-z3urMpEF-1" value="Authentication Service" style="rounded=1;whiteSpace=wrap;html=1;fillColor=#dae8fc;strokeColor=#6c8ebf;" parent="1" vertex="1">
          <mxGeometry x="620" y="230" width="130" height="60" as="geometry" />
        </mxCell>
        <mxCell id="bWFMUhMA222-z3urMpEF-2" value="Auth DB" style="image;aspect=fixed;html=1;points=[];align=center;fontSize=12;image=img/lib/azure2/databases/SQL_Server.svg;" parent="1" vertex="1">
          <mxGeometry x="660" y="50" width="50" height="50" as="geometry" />
        </mxCell>
        <mxCell id="bWFMUhMA222-z3urMpEF-8" value="Azure AD - MSGraph" style="rounded=1;whiteSpace=wrap;html=1;fillColor=#f8cecc;strokeColor=#b85450;" parent="1" vertex="1">
          <mxGeometry x="827" y="230" width="130" height="60" as="geometry" />
        </mxCell>
        <mxCell id="Ju5GTjr9HhfrLoD8wo_W-2" style="edgeStyle=orthogonalEdgeStyle;rounded=0;orthogonalLoop=1;jettySize=auto;html=1;entryX=0.5;entryY=1;entryDx=0;entryDy=0;" parent="1" source="1MhiarmOQ1BAu21N2S9K-1" target="Ju5GTjr9HhfrLoD8wo_W-1" edge="1">
          <mxGeometry relative="1" as="geometry" />
        </mxCell>
        <mxCell id="URw1oCdvZ4ZULjiAWeCE-10" value="SMTP" style="edgeLabel;html=1;align=center;verticalAlign=middle;resizable=0;points=[];" parent="Ju5GTjr9HhfrLoD8wo_W-2" vertex="1" connectable="0">
          <mxGeometry x="0.6568" y="-4" relative="1" as="geometry">
            <mxPoint as="offset" />
          </mxGeometry>
        </mxCell>
        <mxCell id="Ju5GTjr9HhfrLoD8wo_W-4" style="edgeStyle=orthogonalEdgeStyle;rounded=0;orthogonalLoop=1;jettySize=auto;html=1;" parent="1" source="1MhiarmOQ1BAu21N2S9K-1" target="Ju5GTjr9HhfrLoD8wo_W-3" edge="1">
          <mxGeometry relative="1" as="geometry" />
        </mxCell>
        <mxCell id="URw1oCdvZ4ZULjiAWeCE-11" value="HTTPS" style="edgeLabel;html=1;align=center;verticalAlign=middle;resizable=0;points=[];" parent="Ju5GTjr9HhfrLoD8wo_W-4" vertex="1" connectable="0">
          <mxGeometry x="0.7892" y="2" relative="1" as="geometry">
            <mxPoint as="offset" />
          </mxGeometry>
        </mxCell>
        <mxCell id="Ju5GTjr9HhfrLoD8wo_W-6" style="edgeStyle=orthogonalEdgeStyle;rounded=0;orthogonalLoop=1;jettySize=auto;html=1;" parent="1" source="1MhiarmOQ1BAu21N2S9K-1" target="Ju5GTjr9HhfrLoD8wo_W-5" edge="1">
          <mxGeometry relative="1" as="geometry" />
        </mxCell>
        <mxCell id="URw1oCdvZ4ZULjiAWeCE-12" value="HTTPS" style="edgeLabel;html=1;align=center;verticalAlign=middle;resizable=0;points=[];" parent="Ju5GTjr9HhfrLoD8wo_W-6" vertex="1" connectable="0">
          <mxGeometry x="0.8657" y="5" relative="1" as="geometry">
            <mxPoint as="offset" />
          </mxGeometry>
        </mxCell>
        <mxCell id="Ju5GTjr9HhfrLoD8wo_W-8" style="edgeStyle=orthogonalEdgeStyle;rounded=0;orthogonalLoop=1;jettySize=auto;html=1;entryX=0.5;entryY=1;entryDx=0;entryDy=0;" parent="1" source="1MhiarmOQ1BAu21N2S9K-1" target="Ju5GTjr9HhfrLoD8wo_W-7" edge="1">
          <mxGeometry relative="1" as="geometry" />
        </mxCell>
        <mxCell id="URw1oCdvZ4ZULjiAWeCE-13" value="HTTPS" style="edgeLabel;html=1;align=center;verticalAlign=middle;resizable=0;points=[];" parent="Ju5GTjr9HhfrLoD8wo_W-8" vertex="1" connectable="0">
          <mxGeometry x="0.8815" y="5" relative="1" as="geometry">
            <mxPoint as="offset" />
          </mxGeometry>
        </mxCell>
        <mxCell id="0GfC3lX6S0VPZCZiWhWO-2" style="edgeStyle=orthogonalEdgeStyle;rounded=0;orthogonalLoop=1;jettySize=auto;html=1;entryX=0.5;entryY=1;entryDx=0;entryDy=0;" parent="1" source="1MhiarmOQ1BAu21N2S9K-1" target="0GfC3lX6S0VPZCZiWhWO-1" edge="1">
          <mxGeometry relative="1" as="geometry" />
        </mxCell>
        <mxCell id="0GfC3lX6S0VPZCZiWhWO-3" value="HTTPS" style="edgeLabel;html=1;align=center;verticalAlign=middle;resizable=0;points=[];" parent="0GfC3lX6S0VPZCZiWhWO-2" vertex="1" connectable="0">
          <mxGeometry x="0.9286" y="4" relative="1" as="geometry">
            <mxPoint x="4" y="10" as="offset" />
          </mxGeometry>
        </mxCell>
        <mxCell id="1MhiarmOQ1BAu21N2S9K-1" value="Notification Service" style="rounded=1;whiteSpace=wrap;html=1;fillColor=#dae8fc;strokeColor=#6c8ebf;" parent="1" vertex="1">
          <mxGeometry x="60" y="230" width="120" height="60" as="geometry" />
        </mxCell>
        <mxCell id="1MhiarmOQ1BAu21N2S9K-17" value="" style="aspect=fixed;sketch=0;html=1;dashed=0;whitespace=wrap;fillColor=#2875E2;strokeColor=#ffffff;points=[[0.005,0.63,0],[0.1,0.2,0],[0.9,0.2,0],[0.5,0,0],[0.995,0.63,0],[0.72,0.99,0],[0.5,1,0],[0.28,0.99,0]];shape=mxgraph.kubernetes.icon2;kubernetesLabel=1;prIcon=api" parent="1" vertex="1">
          <mxGeometry x="99.17" y="290" width="41.67" height="40" as="geometry" />
        </mxCell>
        <mxCell id="Ju5GTjr9HhfrLoD8wo_W-1" value="smtp.office365.com&lt;br&gt;Email Notification" style="rounded=1;whiteSpace=wrap;html=1;fillColor=#FFFFCC;" parent="1" vertex="1">
          <mxGeometry x="-150" y="120" width="120" height="60" as="geometry" />
        </mxCell>
        <mxCell id="Ju5GTjr9HhfrLoD8wo_W-3" value="Slack Notification&lt;br&gt;web hooks" style="rounded=1;whiteSpace=wrap;html=1;fillColor=#FFFFCC;" parent="1" vertex="1">
          <mxGeometry x="-300" y="120" width="120" height="60" as="geometry" />
        </mxCell>
        <mxCell id="Ju5GTjr9HhfrLoD8wo_W-5" value="Teams Notification&lt;br&gt;web hooks" style="rounded=1;whiteSpace=wrap;html=1;fillColor=#FFFFCC;" parent="1" vertex="1">
          <mxGeometry x="-450" y="120" width="120" height="60" as="geometry" />
        </mxCell>
        <mxCell id="Ju5GTjr9HhfrLoD8wo_W-7" value="Telegram Notification&lt;br&gt;web hooks" style="rounded=1;whiteSpace=wrap;html=1;fillColor=#FFFFCC;" parent="1" vertex="1">
          <mxGeometry x="-600" y="120" width="120" height="60" as="geometry" />
        </mxCell>
        <mxCell id="URw1oCdvZ4ZULjiAWeCE-6" value="Sentry" style="image;aspect=fixed;html=1;points=[];align=center;fontSize=12;image=img/lib/azure2/monitor/SAP_Azure_Monitor.svg;" parent="1" vertex="1">
          <mxGeometry x="1018.75" y="50" width="62.5" height="50" as="geometry" />
        </mxCell>
        <mxCell id="URw1oCdvZ4ZULjiAWeCE-8" style="edgeStyle=orthogonalEdgeStyle;rounded=0;orthogonalLoop=1;jettySize=auto;html=1;" parent="1" source="URw1oCdvZ4ZULjiAWeCE-7" target="URw1oCdvZ4ZULjiAWeCE-6" edge="1">
          <mxGeometry relative="1" as="geometry" />
        </mxCell>
        <mxCell id="URw1oCdvZ4ZULjiAWeCE-7" value="*All Services" style="rounded=1;whiteSpace=wrap;html=1;fillColor=#dae8fc;strokeColor=#6c8ebf;" parent="1" vertex="1">
          <mxGeometry x="1010" y="240" width="80" height="40" as="geometry" />
        </mxCell>
        <mxCell id="URw1oCdvZ4ZULjiAWeCE-9" value="" style="edgeStyle=orthogonalEdgeStyle;rounded=0;orthogonalLoop=1;jettySize=auto;html=1;entryX=0.5;entryY=1;entryDx=0;entryDy=0;startArrow=classic;startFill=1;" parent="1" source="1MhiarmOQ1BAu21N2S9K-22" target="bWFMUhMA222-z3urMpEF-7" edge="1">
          <mxGeometry relative="1" as="geometry">
            <mxPoint x="299" y="570" as="sourcePoint" />
            <mxPoint x="685" y="290" as="targetPoint" />
          </mxGeometry>
        </mxCell>
        <mxCell id="bWFMUhMA222-z3urMpEF-7" value="" style="aspect=fixed;sketch=0;html=1;dashed=0;whitespace=wrap;fillColor=#2875E2;strokeColor=#ffffff;points=[[0.005,0.63,0],[0.1,0.2,0],[0.9,0.2,0],[0.5,0,0],[0.995,0.63,0],[0.72,0.99,0],[0.5,1,0],[0.28,0.99,0]];shape=mxgraph.kubernetes.icon2;kubernetesLabel=1;prIcon=api" parent="1" vertex="1">
          <mxGeometry x="667.29" y="290" width="35.42" height="34" as="geometry" />
        </mxCell>
        <mxCell id="URw1oCdvZ4ZULjiAWeCE-16" value="Applications (URLS)&lt;br&gt;Servers" style="rounded=1;whiteSpace=wrap;html=1;" parent="1" vertex="1">
          <mxGeometry x="330" y="-90" width="120" height="60" as="geometry" />
        </mxCell>
        <mxCell id="URw1oCdvZ4ZULjiAWeCE-36" style="edgeStyle=orthogonalEdgeStyle;rounded=0;orthogonalLoop=1;jettySize=auto;html=1;" parent="1" source="URw1oCdvZ4ZULjiAWeCE-20" target="URw1oCdvZ4ZULjiAWeCE-21" edge="1">
          <mxGeometry relative="1" as="geometry" />
        </mxCell>
        <mxCell id="0GfC3lX6S0VPZCZiWhWO-6" style="edgeStyle=orthogonalEdgeStyle;rounded=0;orthogonalLoop=1;jettySize=auto;html=1;entryX=0.5;entryY=1;entryDx=0;entryDy=0;" parent="1" source="URw1oCdvZ4ZULjiAWeCE-20" target="0GfC3lX6S0VPZCZiWhWO-4" edge="1">
          <mxGeometry relative="1" as="geometry" />
        </mxCell>
        <mxCell id="0GfC3lX6S0VPZCZiWhWO-7" style="edgeStyle=orthogonalEdgeStyle;rounded=0;orthogonalLoop=1;jettySize=auto;html=1;entryX=0.5;entryY=1;entryDx=0;entryDy=0;" parent="1" source="URw1oCdvZ4ZULjiAWeCE-20" target="0GfC3lX6S0VPZCZiWhWO-5" edge="1">
          <mxGeometry relative="1" as="geometry" />
        </mxCell>
        <mxCell id="URw1oCdvZ4ZULjiAWeCE-20" value="" style="rounded=1;whiteSpace=wrap;html=1;fillColor=#dae8fc;strokeColor=#6c8ebf;" parent="1" vertex="1">
          <mxGeometry x="1680" y="210" width="480" height="370" as="geometry" />
        </mxCell>
        <mxCell id="URw1oCdvZ4ZULjiAWeCE-21" value="Applications (URLS)&lt;br&gt;Servers" style="rounded=1;whiteSpace=wrap;html=1;fillColor=#ffcc99;strokeColor=#36393d;" parent="1" vertex="1">
          <mxGeometry x="1700" y="70" width="120" height="60" as="geometry" />
        </mxCell>
        <mxCell id="URw1oCdvZ4ZULjiAWeCE-30" style="edgeStyle=orthogonalEdgeStyle;rounded=0;orthogonalLoop=1;jettySize=auto;html=1;entryX=0.5;entryY=0;entryDx=0;entryDy=0;" parent="1" source="URw1oCdvZ4ZULjiAWeCE-22" target="URw1oCdvZ4ZULjiAWeCE-27" edge="1">
          <mxGeometry relative="1" as="geometry" />
        </mxCell>
        <mxCell id="URw1oCdvZ4ZULjiAWeCE-31" style="edgeStyle=orthogonalEdgeStyle;rounded=0;orthogonalLoop=1;jettySize=auto;html=1;entryX=0.5;entryY=0;entryDx=0;entryDy=0;" parent="1" source="URw1oCdvZ4ZULjiAWeCE-22" target="URw1oCdvZ4ZULjiAWeCE-23" edge="1">
          <mxGeometry relative="1" as="geometry" />
        </mxCell>
        <mxCell id="URw1oCdvZ4ZULjiAWeCE-35" style="edgeStyle=orthogonalEdgeStyle;rounded=0;orthogonalLoop=1;jettySize=auto;html=1;entryX=0.5;entryY=0;entryDx=0;entryDy=0;" parent="1" source="URw1oCdvZ4ZULjiAWeCE-22" target="URw1oCdvZ4ZULjiAWeCE-25" edge="1">
          <mxGeometry relative="1" as="geometry" />
        </mxCell>
        <mxCell id="URw1oCdvZ4ZULjiAWeCE-37" style="edgeStyle=orthogonalEdgeStyle;rounded=0;orthogonalLoop=1;jettySize=auto;html=1;entryX=0;entryY=0.5;entryDx=0;entryDy=0;" parent="1" source="URw1oCdvZ4ZULjiAWeCE-22" target="URw1oCdvZ4ZULjiAWeCE-28" edge="1">
          <mxGeometry relative="1" as="geometry">
            <Array as="points">
              <mxPoint x="2000" y="260" />
              <mxPoint x="2000" y="510" />
            </Array>
          </mxGeometry>
        </mxCell>
        <mxCell id="URw1oCdvZ4ZULjiAWeCE-38" style="edgeStyle=orthogonalEdgeStyle;rounded=0;orthogonalLoop=1;jettySize=auto;html=1;entryX=1;entryY=0.5;entryDx=0;entryDy=0;" parent="1" source="URw1oCdvZ4ZULjiAWeCE-22" target="URw1oCdvZ4ZULjiAWeCE-24" edge="1">
          <mxGeometry relative="1" as="geometry">
            <Array as="points">
              <mxPoint x="1840" y="260" />
              <mxPoint x="1840" y="510" />
            </Array>
          </mxGeometry>
        </mxCell>
        <mxCell id="URw1oCdvZ4ZULjiAWeCE-22" value="Monitor Master" style="rounded=1;whiteSpace=wrap;html=1;fillColor=#ffcc99;strokeColor=#36393d;" parent="1" vertex="1">
          <mxGeometry x="1860" y="230" width="120" height="60" as="geometry" />
        </mxCell>
        <mxCell id="URw1oCdvZ4ZULjiAWeCE-23" value="Monitor Child 1" style="rounded=1;whiteSpace=wrap;html=1;fillColor=#ffcc99;strokeColor=#36393d;" parent="1" vertex="1">
          <mxGeometry x="1711" y="400" width="120" height="60" as="geometry" />
        </mxCell>
        <mxCell id="URw1oCdvZ4ZULjiAWeCE-24" value="Monitor Child 2" style="rounded=1;whiteSpace=wrap;html=1;fillColor=#ffcc99;strokeColor=#36393d;" parent="1" vertex="1">
          <mxGeometry x="1711" y="480" width="120" height="60" as="geometry" />
        </mxCell>
        <mxCell id="URw1oCdvZ4ZULjiAWeCE-25" value="Monitor Child 3" style="rounded=1;whiteSpace=wrap;html=1;fillColor=#d5e8d4;strokeColor=#82b366;" parent="1" vertex="1">
          <mxGeometry x="1860" y="400" width="120" height="60" as="geometry" />
        </mxCell>
        <mxCell id="URw1oCdvZ4ZULjiAWeCE-27" value="Monitor Child 4" style="rounded=1;whiteSpace=wrap;html=1;fillColor=#f8cecc;strokeColor=#b85450;" parent="1" vertex="1">
          <mxGeometry x="2009" y="400" width="120" height="60" as="geometry" />
        </mxCell>
        <mxCell id="URw1oCdvZ4ZULjiAWeCE-28" value="Monitor Child 5" style="rounded=1;whiteSpace=wrap;html=1;fillColor=#f8cecc;strokeColor=#b85450;" parent="1" vertex="1">
          <mxGeometry x="2009" y="480" width="120" height="60" as="geometry" />
        </mxCell>
        <mxCell id="URw1oCdvZ4ZULjiAWeCE-29" value="" style="rounded=1;whiteSpace=wrap;html=1;fillColor=#FFFFFF;strokeColor=#6c8ebf;" parent="1" vertex="1">
          <mxGeometry x="2180" y="210" width="290" height="590" as="geometry" />
        </mxCell>
        <mxCell id="URw1oCdvZ4ZULjiAWeCE-40" value="Monitoring Tasks" style="text;html=1;strokeColor=none;fillColor=none;align=center;verticalAlign=middle;whiteSpace=wrap;rounded=0;" parent="1" vertex="1">
          <mxGeometry x="2080" y="290" width="70" height="30" as="geometry" />
        </mxCell>
        <mxCell id="URw1oCdvZ4ZULjiAWeCE-41" value="Monitoring Tasks" style="text;html=1;strokeColor=none;fillColor=none;align=center;verticalAlign=middle;whiteSpace=wrap;rounded=0;" parent="1" vertex="1">
          <mxGeometry x="1690" y="292" width="70" height="30" as="geometry" />
        </mxCell>
        <mxCell id="URw1oCdvZ4ZULjiAWeCE-42" value="&lt;h1&gt;Monitor Manager&lt;/h1&gt;&lt;p&gt;Scenario with 600 items to monitor the Monitor Master will fetch the list, check which monitors are online, and distribute the tasks with them like:&lt;/p&gt;&lt;p&gt;- Monitor Master: 100 tasks&lt;/p&gt;&lt;p&gt;- Monitor Child 1: 100 tasks&lt;/p&gt;&lt;p&gt;- Monitor Child 2: 100 tasks&lt;/p&gt;&lt;p&gt;- Monitor Child 3: 100 tasks&lt;/p&gt;&lt;p&gt;- Monitor Child 4: 100 tasks&lt;/p&gt;&lt;p&gt;- Monitor Child 5: 100 tasks&lt;/p&gt;&lt;p&gt;- Monitor Child 6: 100 tasks&lt;/p&gt;&lt;p&gt;If the master monitor goes offline one of the Child assumes.&lt;/p&gt;&lt;p&gt;If one Child monitor goes offline the 600 tasks are redistributed back to the left agents alive.&lt;/p&gt;" style="text;html=1;strokeColor=none;fillColor=none;spacing=5;spacingTop=-20;whiteSpace=wrap;overflow=hidden;rounded=0;" parent="1" vertex="1">
          <mxGeometry x="2190" y="225" width="270" height="425" as="geometry" />
        </mxCell>
        <mxCell id="URw1oCdvZ4ZULjiAWeCE-43" value="" style="rounded=1;whiteSpace=wrap;html=1;fillColor=#dae8fc;strokeColor=#6c8ebf;" parent="1" vertex="1">
          <mxGeometry x="1680" y="600" width="480" height="400" as="geometry" />
        </mxCell>
        <mxCell id="URw1oCdvZ4ZULjiAWeCE-44" value="&lt;h1&gt;Monitor Jobs - Hangfire&lt;/h1&gt;&lt;p&gt;Each monitor runs 3 main jobs at startup and X jobs at running state, which will be described here:&lt;/p&gt;&lt;p&gt;&lt;b&gt;1 - StartMonitorHeartBeatManager:&lt;/b&gt;&lt;/p&gt;&lt;p&gt;This job is responsible for saving monitor heartbeats and also setting the monitor as a master, this job runs on all monitors including the master.&lt;/p&gt;&lt;p&gt;&lt;b&gt;2 - StartMasterMonitorAgentTaskManager&lt;/b&gt;&amp;nbsp;&lt;/p&gt;&lt;p&gt;This job only runs on the master monitor and is the job that distributes the tasks between the monitors.&lt;/p&gt;&lt;p&gt;&lt;b&gt;3 - StartRunnerManager&lt;/b&gt;&lt;/p&gt;&lt;p&gt;This job is responsible for fetching the tasks assigned to his own and creating a new set of hangfire jobs to start the scanning, for example, this monitor has 10 tasks to run, 10 hangfire jobs&amp;nbsp;&lt;/p&gt;&lt;p&gt;&lt;b&gt;StartRunnerManager_CheckUrlsAsync_JobId_XX&amp;nbsp;&lt;/b&gt;&lt;/p&gt;&lt;p&gt;Where XX is the jobId. The frequency and parameter for each job are set on the monitor configuration.&lt;/p&gt;" style="text;html=1;strokeColor=none;fillColor=none;spacing=5;spacingTop=-20;whiteSpace=wrap;overflow=hidden;rounded=0;" parent="1" vertex="1">
          <mxGeometry x="1711" y="620" width="419" height="360" as="geometry" />
        </mxCell>
        <mxCell id="I3jezIKi--hEiTG_am1P-1" value="Redis Cache&lt;br&gt;Historical Data" style="image;sketch=0;aspect=fixed;html=1;points=[];align=center;fontSize=12;image=img/lib/mscae/Cache_Redis_Product.svg;" parent="1" vertex="1">
          <mxGeometry x="310" y="61" width="50" height="42" as="geometry" />
        </mxCell>
        <mxCell id="vqQ0VsHs9EydCFRSuEvc-2" value="Applications (URLS)&lt;br&gt;Servers" style="rounded=1;whiteSpace=wrap;html=1;" parent="1" vertex="1">
          <mxGeometry x="480" y="-90" width="120" height="60" as="geometry" />
        </mxCell>
        <mxCell id="vqQ0VsHs9EydCFRSuEvc-7" value="" style="shape=image;html=1;verticalAlign=top;verticalLabelPosition=bottom;labelBackgroundColor=#ffffff;imageAspect=0;aspect=fixed;image=https://cdn2.iconfinder.com/data/icons/social-media-2189/48/17-Google_chrome-128.png" parent="1" vertex="1">
          <mxGeometry x="500" y="-20" width="30" height="30" as="geometry" />
        </mxCell>
        <mxCell id="0GfC3lX6S0VPZCZiWhWO-1" value="Generic HTTP WebHook Notification" style="rounded=1;whiteSpace=wrap;html=1;fillColor=#FFFFCC;" parent="1" vertex="1">
          <mxGeometry x="-750" y="120" width="120" height="60" as="geometry" />
        </mxCell>
        <mxCell id="0GfC3lX6S0VPZCZiWhWO-4" value="Applications (URLS)&lt;br&gt;Servers" style="rounded=1;whiteSpace=wrap;html=1;fillColor=#d5e8d4;strokeColor=#82b366;" parent="1" vertex="1">
          <mxGeometry x="1860.5" y="70" width="120" height="60" as="geometry" />
        </mxCell>
        <mxCell id="0GfC3lX6S0VPZCZiWhWO-5" value="Applications (URLS)&lt;br&gt;Servers" style="rounded=1;whiteSpace=wrap;html=1;fillColor=#f8cecc;strokeColor=#b85450;" parent="1" vertex="1">
          <mxGeometry x="2030" y="70" width="120" height="60" as="geometry" />
        </mxCell>
        <mxCell id="0GfC3lX6S0VPZCZiWhWO-8" value="Monitor Region Asia" style="text;html=1;align=center;verticalAlign=middle;whiteSpace=wrap;rounded=0;" parent="1" vertex="1">
          <mxGeometry x="1870" y="470" width="100" height="30" as="geometry" />
        </mxCell>
        <mxCell id="0GfC3lX6S0VPZCZiWhWO-9" value="Application(s) Asia" style="text;html=1;align=center;verticalAlign=middle;whiteSpace=wrap;rounded=0;" parent="1" vertex="1">
          <mxGeometry x="1870" y="40" width="100" height="30" as="geometry" />
        </mxCell>
        <mxCell id="0GfC3lX6S0VPZCZiWhWO-10" value="Application(s) North America" style="text;html=1;align=center;verticalAlign=middle;whiteSpace=wrap;rounded=0;" parent="1" vertex="1">
          <mxGeometry x="2040" y="40" width="100" height="30" as="geometry" />
        </mxCell>
        <mxCell id="0GfC3lX6S0VPZCZiWhWO-11" value="Application(s) Europe" style="text;html=1;align=center;verticalAlign=middle;whiteSpace=wrap;rounded=0;" parent="1" vertex="1">
          <mxGeometry x="1710" y="40" width="100" height="30" as="geometry" />
        </mxCell>
        <mxCell id="0GfC3lX6S0VPZCZiWhWO-12" value="Monitor Region Europe" style="text;html=1;align=center;verticalAlign=middle;whiteSpace=wrap;rounded=0;" parent="1" vertex="1">
          <mxGeometry x="1717" y="540" width="100" height="30" as="geometry" />
        </mxCell>
        <mxCell id="0GfC3lX6S0VPZCZiWhWO-13" value="Application(s) North America" style="text;html=1;align=center;verticalAlign=middle;whiteSpace=wrap;rounded=0;" parent="1" vertex="1">
          <mxGeometry x="2018" y="540" width="100" height="30" as="geometry" />
        </mxCell>
        <mxCell id="0GfC3lX6S0VPZCZiWhWO-16" value="Connection from monitor to URLs" style="text;html=1;align=center;verticalAlign=middle;whiteSpace=wrap;rounded=0;" parent="1" vertex="1">
          <mxGeometry x="1918" y="170" width="200" height="30" as="geometry" />
        </mxCell>
        <mxCell id="0GfC3lX6S0VPZCZiWhWO-17" value="&lt;h1&gt;Monitor Region&lt;/h1&gt;&lt;div&gt;Each monitor has the configuration to run on a specific region, then the monitor fetches the tasks and queries the URLs for the region,&lt;/div&gt;&lt;div&gt;For example, Monitor 3 (green) only queries Asian URLs, the Salmon (4 and 5) North America, and the others, Europe.&lt;/div&gt;&lt;div&gt;A Custom option also is available in case of the internal network.&lt;/div&gt;" style="text;html=1;strokeColor=none;fillColor=none;spacing=5;spacingTop=-20;whiteSpace=wrap;overflow=hidden;rounded=0;" parent="1" vertex="1">
          <mxGeometry x="2190" y="610" width="270" height="180" as="geometry" />
        </mxCell>
      </root>
    </mxGraphModel>
  </diagram>
</mxfile>
